<svg xmlns="http://www.w3.org/2000/svg" xmlns:xlink="http://www.w3.org/1999/xlink" contentStyleType="text/css" data-diagram-type="CLASS" height="1055px" preserveAspectRatio="none" style="width:1465px;height:1055px;background:#FFFFFF;" version="1.1" viewBox="0 0 1465 1055" width="1465px" zoomAndPan="magnify"><defs/><g><!--cluster views--><g class="cluster" data-entity="views" data-source-line="6" data-uid="ent0002" id="cluster_views"><rect fill="none" height="134.47" rx="2.5" ry="2.5" style="stroke:#181818;stroke-width:1;" width="367" x="900" y="587.31"/><text fill="#000000" font-family="Fira Code" font-size="14" font-weight="bold" lengthAdjust="spacing" textLength="120.6156" x="1023.1922" y="602.2331">View Struct-ok</text></g><!--cluster algo_impl--><g class="cluster" data-entity="algo_impl" data-source-line="93" data-uid="ent0009" id="cluster_algo_impl"><rect fill="none" height="293.54" rx="2.5" ry="2.5" style="stroke:#181818;stroke-width:1;" width="1452" x="7" y="755.62"/><text fill="#000000" font-family="Fira Code" font-size="14" font-weight="bold" lengthAdjust="spacing" textLength="189.5388" x="638.2306" y="770.5431">Algoritmus Realiz&#225;ci&#243;k</text></g><!--class CipherView--><g class="entity" data-entity="CipherView" data-source-line="7" data-uid="ent0003" id="entity_CipherView"><rect fill="#F1F1F1" height="82.4616" rx="2.5" ry="2.5" style="stroke:#181818;stroke-width:0.5;" width="124.0002" x="916" y="623.31"/><ellipse cx="933.6308" cy="639.31" fill="#F1F1F1" rx="11" ry="11" style="stroke:#181818;stroke-width:1;"/><path d="M933.6933,645.7631 C936.4433,645.7631 937.9902,644.1694 937.9902,642.3256 C937.9902,640.7631 937.0839,639.8725 935.6152,639.3256 L934.2714,638.7475 C933.2089,638.3569 932.4589,638.0913 932.4589,637.435 C932.4589,636.7944 933.0214,636.435 933.8495,636.435 C934.9433,636.435 935.6308,636.7475 936.3964,637.31 L937.6777,635.7319 C936.6777,634.7788 935.3339,634.2788 933.9902,634.2788 C931.5839,634.2788 929.9277,635.7319 929.9277,637.5756 C929.9277,639.185 931.037,640.1381 932.287,640.5913 L933.7089,641.2006 C934.7714,641.6538 935.4277,641.8569 935.4277,642.6381 C935.4277,643.2006 934.9433,643.6069 933.8652,643.6069 C932.8027,643.6069 931.7558,643.1225 930.9277,642.4506 L929.4745,644.1694 C930.6777,645.2163 932.1933,645.7631 933.6933,645.7631 Z " fill="#000000"/><text fill="#000000" font-family="Fira Code" font-size="14" lengthAdjust="spacing" textLength="86.154" x="948.2154" y="643.6177">CipherView</text><line style="stroke:#181818;stroke-width:0.5;" x1="917" x2="1039.0002" y1="655.31" y2="655.31"/><text fill="#000000" font-family="Fira Code" font-size="14" lengthAdjust="spacing" textLength="112.0002" x="922" y="672.2331">+data : char*</text><text fill="#000000" font-family="Fira Code" font-size="14" lengthAdjust="spacing" textLength="112.0002" x="922" y="689.4639">+len : size_t</text><line style="stroke:#181818;stroke-width:0.5;" x1="917" x2="1039.0002" y1="697.7716" y2="697.7716"/></g><!--class ConstCipherView--><g class="entity" data-entity="ConstCipherView" data-source-line="11" data-uid="ent0004" id="entity_ConstCipherView"><rect fill="#F1F1F1" height="82.4616" rx="2.5" ry="2.5" style="stroke:#181818;stroke-width:0.5;" width="175.6926" x="1075.15" y="623.31"/><ellipse cx="1096.6577" cy="639.31" fill="#F1F1F1" rx="11" ry="11" style="stroke:#181818;stroke-width:1;"/><path d="M1096.7202,645.7631 C1099.4702,645.7631 1101.0171,644.1694 1101.0171,642.3256 C1101.0171,640.7631 1100.1108,639.8725 1098.6421,639.3256 L1097.2983,638.7475 C1096.2358,638.3569 1095.4858,638.0913 1095.4858,637.435 C1095.4858,636.7944 1096.0483,636.435 1096.8765,636.435 C1097.9702,636.435 1098.6577,636.7475 1099.4233,637.31 L1100.7046,635.7319 C1099.7046,634.7788 1098.3608,634.2788 1097.0171,634.2788 C1094.6108,634.2788 1092.9546,635.7319 1092.9546,637.5756 C1092.9546,639.185 1094.064,640.1381 1095.314,640.5913 L1096.7358,641.2006 C1097.7983,641.6538 1098.4546,641.8569 1098.4546,642.6381 C1098.4546,643.2006 1097.9702,643.6069 1096.8921,643.6069 C1095.8296,643.6069 1094.7827,643.1225 1093.9546,642.4506 L1092.5015,644.1694 C1093.7046,645.2163 1095.2202,645.7631 1096.7202,645.7631 Z " fill="#000000"/><text fill="#000000" font-family="Fira Code" font-size="14" lengthAdjust="spacing" textLength="129.231" x="1112.1039" y="643.6177">ConstCipherView</text><line style="stroke:#181818;stroke-width:0.5;" x1="1076.15" x2="1249.8426" y1="655.31" y2="655.31"/><text fill="#000000" font-family="Fira Code" font-size="14" lengthAdjust="spacing" textLength="163.6926" x="1081.15" y="672.2331">+data : const char*</text><text fill="#000000" font-family="Fira Code" font-size="14" lengthAdjust="spacing" textLength="112.0002" x="1081.15" y="689.4639">+len : size_t</text><line style="stroke:#181818;stroke-width:0.5;" x1="1076.15" x2="1249.8426" y1="697.7716" y2="697.7716"/></g><!--class XORCipher--><g class="entity" data-entity="XORCipher" data-source-line="94" data-uid="ent0010" id="entity_XORCipher"><rect fill="#F1F1F1" height="241.5388" rx="2.5" ry="2.5" style="stroke:#181818;stroke-width:0.5;" width="692.6175" x="22.69" y="791.62"/><ellipse cx="325.9794" cy="807.62" fill="#ADD1B2" rx="11" ry="11" style="stroke:#181818;stroke-width:1;"/><path d="M326.0263,813.8231 C327.5263,813.8231 328.7607,813.2606 329.6669,812.1981 L328.2919,810.6825 C327.7451,811.2763 327.0888,811.6669 326.2919,811.6669 C324.6201,811.6669 323.4638,810.3388 323.4638,808.0575 C323.4638,805.8388 324.6201,804.495 326.1826,804.495 C326.9951,804.495 327.5888,804.8075 328.1201,805.2919 L329.4951,803.745 C328.7451,803.0106 327.5888,802.3388 326.1826,802.3388 C323.2294,802.3388 320.9013,804.4794 320.9013,808.1513 C320.9013,811.87 323.2763,813.8231 326.0263,813.8231 Z " fill="#000000"/><text fill="#000000" font-family="Fira Code" font-size="14" lengthAdjust="spacing" textLength="77.5386" x="346.4794" y="811.9277">XORCipher</text><line style="stroke:#181818;stroke-width:0.5;" x1="23.69" x2="714.3075" y1="823.62" y2="823.62"/><text fill="#000000" font-family="Fira Code" font-size="14" lengthAdjust="spacing" textLength="215.3851" x="28.69" y="840.5431">-magic_key : unsigned int</text><text fill="#000000" font-family="Fira Code" font-size="14" lengthAdjust="spacing" textLength="258.4621" x="28.69" y="879.0047">+XORCipher(key : unsigned int)</text><text fill="#000000" font-family="Fira Code" font-size="14" lengthAdjust="spacing" textLength="103.3848" x="28.69" y="896.2355">~XORCipher()</text><line style="stroke:#181818;stroke-width:1;" x1="23.69" x2="274.2293" y1="857.4662" y2="857.4662"/><text fill="#000000" font-family="Fira Code" font-size="14" lengthAdjust="spacing" textLength="189.5388" x="274.2293" y="861.2739">konstruktor/destruktor</text><line style="stroke:#181818;stroke-width:1;" x1="463.7682" x2="714.3075" y1="857.4662" y2="857.4662"/><line style="stroke:#181818;stroke-width:1;" x1="23.69" x2="714.3075" y1="904.5432" y2="904.5432"/><text fill="#000000" font-family="Fira Code" font-size="14" lengthAdjust="spacing" textLength="232.6159" x="28.69" y="921.4663">+clone() const : Algorithm*</text><text fill="#000000" font-family="Fira Code" font-size="14" lengthAdjust="spacing" textLength="8.6154" x="28.69" y="938.6971">&#160;</text><text fill="#000000" font-family="Fira Code" font-size="14" lengthAdjust="spacing" textLength="577.2325" x="28.69" y="955.9279">+transform(cipher_direction : Mode, enciphered : char) const : char</text><text fill="#000000" font-family="Fira Code" font-size="14" lengthAdjust="spacing" textLength="663.3867" x="28.69" y="973.1587">+append_ciphered(target : CipherView&amp;, source : ConstCipherView) const : void</text><text fill="#000000" font-family="Fira Code" font-size="14" lengthAdjust="spacing" textLength="680.6175" x="28.69" y="990.3895">+append_unciphered(target : CipherView&amp;, source : ConstCipherView) const : void</text><text fill="#000000" font-family="Fira Code" font-size="14" lengthAdjust="spacing" textLength="8.6154" x="28.69" y="1007.6203">&#160;</text><text fill="#000000" font-family="Fira Code" font-size="14" lengthAdjust="spacing" textLength="534.1554" x="28.69" y="1024.8511">+is_compatible_with(other_algorithm : Algorithm*) const : bool</text></g><!--class CaesarCipher--><g class="entity" data-entity="CaesarCipher" data-source-line="109" data-uid="ent0011" id="entity_CaesarCipher"><rect fill="#F1F1F1" height="241.5388" rx="2.5" ry="2.5" style="stroke:#181818;stroke-width:0.5;" width="692.6175" x="750.69" y="791.62"/><ellipse cx="1041.0563" cy="807.62" fill="#ADD1B2" rx="11" ry="11" style="stroke:#181818;stroke-width:1;"/><path d="M1041.1032,813.8231 C1042.6032,813.8231 1043.8376,813.2606 1044.7438,812.1981 L1043.3688,810.6825 C1042.822,811.2763 1042.1657,811.6669 1041.3688,811.6669 C1039.697,811.6669 1038.5407,810.3388 1038.5407,808.0575 C1038.5407,805.8388 1039.697,804.495 1041.2595,804.495 C1042.072,804.495 1042.6657,804.8075 1043.197,805.2919 L1044.572,803.745 C1043.822,803.0106 1042.6657,802.3388 1041.2595,802.3388 C1038.3063,802.3388 1035.9782,804.4794 1035.9782,808.1513 C1035.9782,811.87 1038.3532,813.8231 1041.1032,813.8231 Z " fill="#000000"/><text fill="#000000" font-family="Fira Code" font-size="14" lengthAdjust="spacing" textLength="103.3848" x="1061.5563" y="811.9277">CaesarCipher</text><line style="stroke:#181818;stroke-width:0.5;" x1="751.69" x2="1442.3075" y1="823.62" y2="823.62"/><text fill="#000000" font-family="Fira Code" font-size="14" lengthAdjust="spacing" textLength="112.0002" x="756.69" y="840.5431">-offset : int</text><text fill="#000000" font-family="Fira Code" font-size="14" lengthAdjust="spacing" textLength="206.7697" x="756.69" y="879.0047">+XORCipher(offset : int)</text><text fill="#000000" font-family="Fira Code" font-size="14" lengthAdjust="spacing" textLength="103.3848" x="756.69" y="896.2355">~XORCipher()</text><line style="stroke:#181818;stroke-width:1;" x1="751.69" x2="1002.2293" y1="857.4662" y2="857.4662"/><text fill="#000000" font-family="Fira Code" font-size="14" lengthAdjust="spacing" textLength="189.5388" x="1002.2293" y="861.2739">konstruktor/destruktor</text><line style="stroke:#181818;stroke-width:1;" x1="1191.7682" x2="1442.3075" y1="857.4662" y2="857.4662"/><line style="stroke:#181818;stroke-width:1;" x1="751.69" x2="1442.3075" y1="904.5432" y2="904.5432"/><text fill="#000000" font-family="Fira Code" font-size="14" lengthAdjust="spacing" textLength="232.6159" x="756.69" y="921.4663">+clone() const : Algorithm*</text><text fill="#000000" font-family="Fira Code" font-size="14" lengthAdjust="spacing" textLength="8.6154" x="756.69" y="938.6971">&#160;</text><text fill="#000000" font-family="Fira Code" font-size="14" lengthAdjust="spacing" textLength="577.2325" x="756.69" y="955.9279">+transform(cipher_direction : Mode, enciphered : char) const : char</text><text fill="#000000" font-family="Fira Code" font-size="14" lengthAdjust="spacing" textLength="663.3867" x="756.69" y="973.1587">+append_ciphered(target : CipherView&amp;, source : ConstCipherView) const : void</text><text fill="#000000" font-family="Fira Code" font-size="14" lengthAdjust="spacing" textLength="680.6175" x="756.69" y="990.3895">+append_unciphered(target : CipherView&amp;, source : ConstCipherView) const : void</text><text fill="#000000" font-family="Fira Code" font-size="14" lengthAdjust="spacing" textLength="8.6154" x="756.69" y="1007.6203">&#160;</text><text fill="#000000" font-family="Fira Code" font-size="14" lengthAdjust="spacing" textLength="534.1554" x="756.69" y="1024.8511">+is_compatible_with(other_algorithm : Algorithm*) const : bool</text></g><!--class Cipher--><g class="entity" data-entity="Cipher" data-source-line="17" data-uid="ent0005" id="entity_Cipher"><rect fill="#F1F1F1" height="525.2315" rx="2.5" ry="2.5" style="stroke:#181818;stroke-width:0.5;" width="494.4629" x="730.77" y="9.62"/><ellipse cx="947.9052" cy="25.62" fill="#ADD1B2" rx="11" ry="11" style="stroke:#181818;stroke-width:1;"/><path d="M947.9521,31.8231 C949.4521,31.8231 950.6865,31.2606 951.5927,30.1981 L950.2177,28.6825 C949.6709,29.2763 949.0146,29.6669 948.2177,29.6669 C946.5459,29.6669 945.3896,28.3388 945.3896,26.0575 C945.3896,23.8388 946.5459,22.495 948.1084,22.495 C948.9209,22.495 949.5146,22.8075 950.0459,23.2919 L951.4209,21.745 C950.6709,21.0106 949.5146,20.3388 948.1084,20.3388 C945.1552,20.3388 942.8271,22.4794 942.8271,26.1513 C942.8271,29.87 945.2021,31.8231 947.9521,31.8231 Z " fill="#000000"/><text fill="#000000" font-family="Fira Code" font-size="14" lengthAdjust="spacing" textLength="51.6924" x="968.4052" y="29.9277">Cipher</text><line style="stroke:#181818;stroke-width:0.5;" x1="731.77" x2="1224.2329" y1="41.62" y2="41.62"/><text fill="#000000" font-family="Fira Code" font-size="14" lengthAdjust="spacing" textLength="258.4621" x="736.77" y="58.5431">-cipher_algorithm : Algorithm*</text><text fill="#000000" font-family="Fira Code" font-size="14" lengthAdjust="spacing" textLength="189.5388" x="736.77" y="75.7739">-ciphered : CipherView</text><line style="stroke:#181818;stroke-width:1;" x1="731.77" x2="1224.2329" y1="84.0816" y2="84.0816"/><text fill="#000000" font-family="Fira Code" font-size="14" lengthAdjust="spacing" textLength="465.2321" x="736.77" y="101.0047">-uncipher_self_into(target : CipherView&amp;) const : void</text><text fill="#000000" font-family="Fira Code" font-size="14" lengthAdjust="spacing" textLength="430.7704" x="736.77" y="118.2355">-cipher_into_self(source : ConstCipherView) : void</text><text fill="#000000" font-family="Fira Code" font-size="14" lengthAdjust="spacing" textLength="8.6154" x="736.77" y="135.4663">&#160;</text><text fill="#000000" font-family="Fira Code" font-size="14" lengthAdjust="spacing" textLength="482.4629" x="736.77" y="152.6971">+recipher_and_assign_data(source : const Cipher&amp;) : void</text><text fill="#000000" font-family="Fira Code" font-size="14" lengthAdjust="spacing" textLength="344.6162" x="736.77" y="191.1587">+Cipher(injected_algorithm : Algorithm*)</text><text fill="#000000" font-family="Fira Code" font-size="14" lengthAdjust="spacing" textLength="327.3854" x="736.77" y="208.3895">+Cipher(copied_cipher : const Cipher&amp;)</text><text fill="#000000" font-family="Fira Code" font-size="14" lengthAdjust="spacing" textLength="77.5386" x="736.77" y="225.6203">~Cipher()</text><line style="stroke:#181818;stroke-width:1;" x1="731.77" x2="874.6166" y1="169.6202" y2="169.6202"/><text fill="#000000" font-family="Fira Code" font-size="14" lengthAdjust="spacing" textLength="206.7697" x="874.6166" y="173.4279">konstruktorok/destruktor</text><line style="stroke:#181818;stroke-width:1;" x1="1081.3863" x2="1224.2329" y1="169.6202" y2="169.6202"/><text fill="#000000" font-family="Fira Code" font-size="14" lengthAdjust="spacing" textLength="267.0775" x="736.77" y="264.0819">+begin() const : const_iterator</text><text fill="#000000" font-family="Fira Code" font-size="14" lengthAdjust="spacing" textLength="249.8467" x="736.77" y="281.3127">+end() const : const_iterator</text><line style="stroke:#181818;stroke-width:1;" x1="731.77" x2="900.4628" y1="242.5434" y2="242.5434"/><text fill="#000000" font-family="Fira Code" font-size="14" lengthAdjust="spacing" textLength="155.0772" x="900.4628" y="246.3511">iterator met&#243;dusok</text><line style="stroke:#181818;stroke-width:1;" x1="1055.5401" x2="1224.2329" y1="242.5434" y2="242.5434"/><text fill="#000000" font-family="Fira Code" font-size="14" lengthAdjust="spacing" textLength="301.5391" x="736.77" y="319.7743">+operator[](idx : int) const : char</text><text fill="#000000" font-family="Fira Code" font-size="14" lengthAdjust="spacing" textLength="8.6154" x="736.77" y="337.005">&#160;</text><text fill="#000000" font-family="Fira Code" font-size="14" lengthAdjust="spacing" textLength="344.6162" x="736.77" y="354.2358">+operator=(rhs : const Cipher) : Cipher&amp;</text><text fill="#000000" font-family="Fira Code" font-size="14" lengthAdjust="spacing" textLength="379.0779" x="736.77" y="371.4666">+operator=(rhs_cstr : const char*) : Cipher&amp;</text><text fill="#000000" font-family="Fira Code" font-size="14" lengthAdjust="spacing" textLength="8.6154" x="736.77" y="388.6974">&#160;</text><text fill="#000000" font-family="Fira Code" font-size="14" lengthAdjust="spacing" textLength="387.6933" x="736.77" y="405.9282">+operator+=(rhs_cstr : const char*) : Cipher&amp;</text><text fill="#000000" font-family="Fira Code" font-size="14" lengthAdjust="spacing" textLength="370.4625" x="736.77" y="423.159">+operator+(rhs_cstr : const char*) : Cipher</text><text fill="#000000" font-family="Fira Code" font-size="14" lengthAdjust="spacing" textLength="8.6154" x="736.77" y="440.3898">&#160;</text><text fill="#000000" font-family="Fira Code" font-size="14" lengthAdjust="spacing" textLength="422.155" x="736.77" y="457.6206">+operator+=(rhs_cipher : const Cipher&amp;) : Cipher&amp;</text><text fill="#000000" font-family="Fira Code" font-size="14" lengthAdjust="spacing" textLength="404.9241" x="736.77" y="474.8514">+operator+(rhs_cipher : const Cipher&amp;) : Cipher</text><text fill="#000000" font-family="Fira Code" font-size="14" lengthAdjust="spacing" textLength="8.6154" x="736.77" y="492.0822">&#160;</text><text fill="#000000" font-family="Fira Code" font-size="14" lengthAdjust="spacing" textLength="448.0012" x="736.77" y="509.313">+operator==(rhs_cipher : const Cipher&amp;) const : bool</text><text fill="#000000" font-family="Fira Code" font-size="14" lengthAdjust="spacing" textLength="448.0012" x="736.77" y="526.5438">+operator!=(rhs_cipher : const Cipher&amp;) const : bool</text><line style="stroke:#181818;stroke-width:1;" x1="731.77" x2="934.9244" y1="298.2358" y2="298.2358"/><text fill="#000000" font-family="Fira Code" font-size="14" lengthAdjust="spacing" textLength="86.154" x="934.9244" y="302.0435">oper&#225;torok</text><line style="stroke:#181818;stroke-width:1;" x1="1021.0785" x2="1224.2329" y1="298.2358" y2="298.2358"/></g><!--class const_iterator--><g class="entity" data-entity="const_iterator" data-source-line="49" data-uid="ent0006" id="entity_const_iterator"><rect fill="#F1F1F1" height="530.4623" rx="2.5" ry="2.5" style="stroke:#181818;stroke-width:0.5;" width="563.3862" x="132.31" y="7"/><ellipse cx="349.4453" cy="23" fill="#ADD1B2" rx="11" ry="11" style="stroke:#181818;stroke-width:1;"/><path d="M349.4922,29.2031 C350.9922,29.2031 352.2265,28.6406 353.1328,27.5781 L351.7578,26.0625 C351.2109,26.6563 350.5547,27.0469 349.7578,27.0469 C348.0859,27.0469 346.9297,25.7188 346.9297,23.4375 C346.9297,21.2188 348.0859,19.875 349.6484,19.875 C350.4609,19.875 351.0547,20.1875 351.5859,20.6719 L352.9609,19.125 C352.2109,18.3906 351.0547,17.7188 349.6484,17.7188 C346.6953,17.7188 344.3672,19.8594 344.3672,23.5313 C344.3672,27.25 346.7422,29.2031 349.4922,29.2031 Z " fill="#000000"/><text fill="#000000" font-family="Fira Code" font-size="14" lengthAdjust="spacing" textLength="120.6156" x="369.9453" y="27.3077">const_iterator</text><line style="stroke:#181818;stroke-width:0.5;" x1="133.31" x2="694.6962" y1="39" y2="39"/><text fill="#000000" font-family="Fira Code" font-size="14" lengthAdjust="spacing" textLength="258.4621" x="138.31" y="55.9231">-parent_cipher : const Cipher*</text><text fill="#000000" font-family="Fira Code" font-size="14" lengthAdjust="spacing" textLength="232.6159" x="138.31" y="73.1539">-ciphered_ptr : const char*</text><text fill="#000000" font-family="Fira Code" font-size="14" lengthAdjust="spacing" textLength="551.3862" x="138.31" y="111.6155">+const_iterator(parent : const Cipher*, iter_ptr : const char*);</text><line style="stroke:#181818;stroke-width:1;" x1="133.31" x2="366.6184" y1="90.077" y2="90.077"/><text fill="#000000" font-family="Fira Code" font-size="14" lengthAdjust="spacing" textLength="94.7694" x="366.6184" y="93.8847">konstruktor</text><line style="stroke:#181818;stroke-width:1;" x1="461.3878" x2="694.6962" y1="90.077" y2="90.077"/><text fill="#000000" font-family="Fira Code" font-size="14" lengthAdjust="spacing" textLength="215.3851" x="138.31" y="150.0771">+operator*() const : char</text><text fill="#000000" font-family="Fira Code" font-size="14" lengthAdjust="spacing" textLength="534.1554" x="138.31" y="167.3079">+operator-(rhs_iter : const const_iterator&amp;) const : ptrdiff_t</text><text fill="#000000" font-family="Fira Code" font-size="14" lengthAdjust="spacing" textLength="301.5391" x="138.31" y="184.5387">+operator[](idx : int) const : char</text><text fill="#000000" font-family="Fira Code" font-size="14" lengthAdjust="spacing" textLength="8.6154" x="138.31" y="201.7695">&#160;</text><text fill="#000000" font-family="Fira Code" font-size="14" lengthAdjust="spacing" textLength="430.7704" x="138.31" y="219.0003">+operator+=(rhs_offset : size_t) : const_iterator&amp;</text><text fill="#000000" font-family="Fira Code" font-size="14" lengthAdjust="spacing" textLength="430.7704" x="138.31" y="236.2311">+operator-=(rhs_offset : size_t) : const_iterator&amp;</text><text fill="#000000" font-family="Fira Code" font-size="14" lengthAdjust="spacing" textLength="8.6154" x="138.31" y="253.4619">&#160;</text><text fill="#000000" font-family="Fira Code" font-size="14" lengthAdjust="spacing" textLength="267.0775" x="138.31" y="270.6927">+operator++() : const_iterator&amp;</text><text fill="#000000" font-family="Fira Code" font-size="14" lengthAdjust="spacing" textLength="267.0775" x="138.31" y="287.9235">+operator--() : const_iterator&amp;</text><text fill="#000000" font-family="Fira Code" font-size="14" lengthAdjust="spacing" textLength="8.6154" x="138.31" y="305.1543">&#160;</text><text fill="#000000" font-family="Fira Code" font-size="14" lengthAdjust="spacing" textLength="370.4625" x="138.31" y="322.385">+operator++(postfix : int) : const_iterator</text><text fill="#000000" font-family="Fira Code" font-size="14" lengthAdjust="spacing" textLength="370.4625" x="138.31" y="339.6158">+operator--(postfix : int) : const_iterator</text><text fill="#000000" font-family="Fira Code" font-size="14" lengthAdjust="spacing" textLength="8.6154" x="138.31" y="356.8466">&#160;</text><text fill="#000000" font-family="Fira Code" font-size="14" lengthAdjust="spacing" textLength="465.2321" x="138.31" y="374.0774">+operator+(rhs_offset : size_t) const : const_iterator</text><text fill="#000000" font-family="Fira Code" font-size="14" lengthAdjust="spacing" textLength="465.2321" x="138.31" y="391.3082">+operator-(rhs_offset : size_t) const : const_iterator</text><text fill="#000000" font-family="Fira Code" font-size="14" lengthAdjust="spacing" textLength="8.6154" x="138.31" y="408.539">&#160;</text><text fill="#000000" font-family="Fira Code" font-size="14" lengthAdjust="spacing" textLength="499.6937" x="138.31" y="425.7698">+operator==(rhs_iter : const const_iterator&amp;) const : bool</text><text fill="#000000" font-family="Fira Code" font-size="14" lengthAdjust="spacing" textLength="499.6937" x="138.31" y="443.0006">+operator!=(rhs_iter : const const_iterator&amp;) const : bool</text><text fill="#000000" font-family="Fira Code" font-size="14" lengthAdjust="spacing" textLength="8.6154" x="138.31" y="460.2314">&#160;</text><text fill="#000000" font-family="Fira Code" font-size="14" lengthAdjust="spacing" textLength="491.0783" x="138.31" y="477.4622">+operator&lt;(rhs_iter : const const_iterator&amp;) const : bool</text><text fill="#000000" font-family="Fira Code" font-size="14" lengthAdjust="spacing" textLength="491.0783" x="138.31" y="494.693">+operator&gt;(rhs_iter : const const_iterator&amp;) const : bool</text><text fill="#000000" font-family="Fira Code" font-size="14" lengthAdjust="spacing" textLength="499.6937" x="138.31" y="511.9238">+operator&gt;=(rhs_iter : const const_iterator&amp;) const : bool</text><text fill="#000000" font-family="Fira Code" font-size="14" lengthAdjust="spacing" textLength="499.6937" x="138.31" y="529.1546">+operator&lt;=(rhs_iter : const const_iterator&amp;) const : bool</text><line style="stroke:#181818;stroke-width:1;" x1="133.31" x2="370.9261" y1="128.5386" y2="128.5386"/><text fill="#000000" font-family="Fira Code" font-size="14" lengthAdjust="spacing" textLength="86.154" x="370.9261" y="132.3463">oper&#225;torok</text><line style="stroke:#181818;stroke-width:1;" x1="457.0801" x2="694.6962" y1="128.5386" y2="128.5386"/></g><!--class Mode--><g class="entity" data-entity="Mode" data-source-line="80" data-uid="ent0007" id="entity_Mode"><rect fill="#F1F1F1" height="82.4616" rx="2.5" ry="2.5" style="stroke:#181818;stroke-width:0.5;" width="72.3078" x="132.85" y="623.31"/><ellipse cx="150.4808" cy="639.31" fill="#EB937F" rx="11" ry="11" style="stroke:#181818;stroke-width:1;"/><path d="M146.5433,645.31 L154.0589,645.31 L154.0589,643.2006 L149.0589,643.2006 L149.0589,640.6538 L153.1527,640.6538 L153.1527,638.56 L149.0589,638.56 L149.0589,636.3413 L153.887,636.3413 L153.887,634.2319 L146.5433,634.2319 L146.5433,645.31 Z " fill="#000000"/><text fill="#000000" font-family="Fira Code" font-size="14" lengthAdjust="spacing" textLength="34.4616" x="165.0654" y="643.6177">Mode</text><line style="stroke:#181818;stroke-width:0.5;" x1="133.85" x2="204.1578" y1="655.31" y2="655.31"/><text fill="#000000" font-family="Fira Code" font-size="14" lengthAdjust="spacing" textLength="60.3078" x="138.85" y="672.2331">Encrypt</text><text fill="#000000" font-family="Fira Code" font-size="14" lengthAdjust="spacing" textLength="60.3078" x="138.85" y="689.4639">Decrypt</text><line style="stroke:#181818;stroke-width:0.5;" x1="133.85" x2="204.1578" y1="697.7716" y2="697.7716"/></g><!--class Algorithm--><g class="entity" data-entity="Algorithm" data-source-line="85" data-uid="ent0008" id="entity_Algorithm"><rect fill="#F1F1F1" height="134.154" rx="2.5" ry="2.5" style="stroke:#181818;stroke-width:0.5;" width="640.925" x="240.54" y="597.47"/><ellipse cx="517.9832" cy="613.47" fill="#B4A7E5" rx="11" ry="11" style="stroke:#181818;stroke-width:1;"/><path d="M514.2488,619.47 L521.9207,619.47 L521.9207,617.3606 L519.3426,617.3606 L519.3426,610.5013 L521.9207,610.5013 L521.9207,608.3919 L514.2488,608.3919 L514.2488,610.5013 L516.8269,610.5013 L516.8269,617.3606 L514.2488,617.3606 L514.2488,619.47 Z " fill="#000000"/><text fill="#000000" font-family="Fira Code" font-size="14" font-style="italic" lengthAdjust="spacing" textLength="77.5386" x="538.4832" y="617.7777">Algorithm</text><line style="stroke:#181818;stroke-width:0.5;" x1="241.54" x2="880.465" y1="629.47" y2="629.47"/><line style="stroke:#181818;stroke-width:0.5;" x1="241.54" x2="880.465" y1="637.47" y2="637.47"/><text fill="#000000" font-family="Fira Code" font-size="14" lengthAdjust="spacing" textLength="525.54" x="246.54" y="654.3931">+transform(cipher_direction : Mode, enciphered : char) : char</text><text fill="#000000" font-family="Fira Code" font-size="14" lengthAdjust="spacing" textLength="611.6942" x="246.54" y="671.6239">+append_ciphered(target : CipherView&amp;, source : ConstCipherView) : void</text><text fill="#000000" font-family="Fira Code" font-size="14" lengthAdjust="spacing" textLength="628.925" x="246.54" y="688.8547">+append_unciphered(target : CipherView&amp;, source : ConstCipherView) : void</text><text fill="#000000" font-family="Fira Code" font-size="14" lengthAdjust="spacing" textLength="482.4629" x="246.54" y="706.0855">+is_compatible_with(other_algorithm : Algorithm*) : bool</text><text fill="#000000" font-family="Fira Code" font-size="14" lengthAdjust="spacing" textLength="180.9234" x="246.54" y="723.3163">+clone() : Algorithm*</text></g><!--reverse link Cipher to CipherView--><g class="link" data-entity-1="Cipher" data-entity-2="CipherView" data-source-line="125" data-uid="lnk12" id="link_Cipher_CipherView"><path codeLine="125" d="M978,547.2 C978,581.11 978,599.95 978,622.9" fill="none" id="Cipher-backto-CipherView" style="stroke:#181818;stroke-width:1;"/><polygon fill="#181818" points="978,535.2,974,541.2,978,547.2,982,541.2,978,535.2" style="stroke:#181818;stroke-width:1;"/></g><!--link Cipher to ConstCipherView--><g class="link" data-entity-1="Cipher" data-entity-2="ConstCipherView" data-source-line="126" data-uid="lnk13" id="link_Cipher_ConstCipherView"><path codeLine="126" d="M1102.17,535.2 C1118.24,569.11 1130.2898,594.5284 1141.1698,617.4784" fill="none" id="Cipher-to-ConstCipherView" style="stroke:#181818;stroke-width:1;stroke-dasharray:7.0,7.0;"/><polygon fill="#181818" points="1143.74,622.9,1143.499,613.0541,1141.5981,618.382,1136.2702,616.4811,1143.74,622.9" style="stroke:#181818;stroke-width:1;"/></g><!--link Cipher to Algorithm--><g class="link" data-entity-1="Cipher" data-entity-2="Algorithm" data-source-line="127" data-uid="lnk14" id="link_Cipher_Algorithm"><path codeLine="127" d="M730.41,521.48 C724.58,526.89 718.77,532.22 713,537.47 C691.06,557.42 671.2196,574.4613 648.4396,593.3413" fill="none" id="Cipher-to-Algorithm" style="stroke:#181818;stroke-width:1;"/><polygon fill="#181818" points="643.82,597.17,653.3019,594.5067,647.6697,593.9794,648.1969,588.3472,643.82,597.17" style="stroke:#181818;stroke-width:1;"/></g><!--link const_iterator to Cipher--><g class="link" data-entity-1="const_iterator" data-entity-2="Cipher" data-source-line="129" data-uid="lnk15" id="link_const_iterator_Cipher"><path codeLine="129" d="M696,471.16 C707.47,471.16 703.1809,472.8784 714.6509,470.9084" fill="none" id="const_iterator-to-Cipher" style="stroke:#181818;stroke-width:1;"/><ellipse cx="722.5354" cy="469.5542" fill="#FFFFFF" rx="8" ry="8" style="stroke:#181818;stroke-width:1;"/><line style="stroke:#181818;stroke-width:1;" x1="714.6509" x2="730.42" y1="470.9084" y2="468.2"/><line style="stroke:#181818;stroke-width:1;" x1="721.1813" x2="723.8896" y1="461.6696" y2="477.4387"/></g><!--link const_iterator to Cipher--><g class="link" data-entity-1="const_iterator" data-entity-2="Cipher" data-source-line="130" data-uid="lnk16" id="link_const_iterator_Cipher"><path codeLine="130" d="M696,73.31 C707.47,73.31 713.0374,73.2794 724.5074,75.2594" fill="none" id="const_iterator-to-Cipher-1" style="stroke:#181818;stroke-width:1;"/><polygon fill="#181818" points="730.42,76.28,722.2316,70.8073,725.4929,75.4295,720.8707,78.6907,730.42,76.28" style="stroke:#181818;stroke-width:1;"/></g><!--link Mode to Algorithm--><g class="link" data-entity-1="Mode" data-entity-2="Algorithm" data-source-line="132" data-uid="lnk18" id="link_Mode_Algorithm"><path codeLine="132" d="M205.37,674.95 C216.94,677.93 212.8344,677.4239 224.4144,679.7539" fill="none" id="Mode-to-Algorithm" style="stroke:#181818;stroke-width:1;"/><ellipse cx="232.2572" cy="681.332" fill="#FFFFFF" rx="8" ry="8" style="stroke:#181818;stroke-width:1;"/><line style="stroke:#181818;stroke-width:1;" x1="224.4144" x2="240.1" y1="679.7539" y2="682.91"/><line style="stroke:#181818;stroke-width:1;" x1="233.8352" x2="230.6791" y1="673.4891" y2="689.1748"/></g><!--link Algorithm to Mode--><g class="link" data-entity-1="Algorithm" data-entity-2="Mode" data-source-line="136" data-uid="lnk21" id="link_Algorithm_Mode"><path codeLine="136" d="M240.1,646.18 C228.52,648.51 222.7516,649.6682 211.1816,652.6382" fill="none" id="Algorithm-to-Mode" style="stroke:#181818;stroke-width:1;stroke-dasharray:7.0,7.0;"/><polygon fill="#181818" points="205.37,654.13,215.0819,655.7667,210.213,652.8868,213.0928,648.0179,205.37,654.13" style="stroke:#181818;stroke-width:1;"/></g><!--link Algorithm to CipherView--><g class="link" data-entity-1="Algorithm" data-entity-2="CipherView" data-source-line="134" data-uid="lnk19" id="link_Algorithm_CipherView"><path codeLine="134" d="M881.89,664.54 C893.16,664.54 898.42,664.54 909.68,664.54" fill="none" id="Algorithm-to-CipherView" style="stroke:#181818;stroke-width:1;stroke-dasharray:7.0,7.0;"/><polygon fill="#181818" points="915.68,664.54,906.68,660.54,910.68,664.54,906.68,668.54,915.68,664.54" style="stroke:#181818;stroke-width:1;"/></g><!--link Algorithm to ConstCipherView--><g class="link" data-entity-1="Algorithm" data-entity-2="ConstCipherView" data-source-line="135" data-uid="lnk20" id="link_Algorithm_ConstCipherView"><path codeLine="135" d="M689.21,597.06 C787.41,554.64 925.16,515.37 1040.5,558.39 C1075.17,571.32 1102.4503,594.5991 1124.7603,618.4391" fill="none" id="Algorithm-to-ConstCipherView" style="stroke:#181818;stroke-width:1;stroke-dasharray:7.0,7.0;"/><polygon fill="#181818" points="1128.86,622.82,1125.631,613.5155,1125.4436,619.1693,1119.7898,618.9818,1128.86,622.82" style="stroke:#181818;stroke-width:1;"/></g><!--reverse link Algorithm to XORCipher--><g class="link" data-entity-1="Algorithm" data-entity-2="XORCipher" data-source-line="138" data-uid="lnk22" id="link_Algorithm_XORCipher"><path codeLine="138" d="M497.9661,746.2604 C483.6461,764.6104 478.72,770.9 462.8,791.28" fill="none" id="Algorithm-backto-XORCipher" style="stroke:#181818;stroke-width:1;stroke-dasharray:7.0,7.0;"/><polygon fill="none" points="509.04,732.07,493.2359,742.5691,502.6962,749.9517,509.04,732.07" style="stroke:#181818;stroke-width:1;"/></g><!--reverse link Algorithm to CaesarCipher--><g class="link" data-entity-1="Algorithm" data-entity-2="CaesarCipher" data-source-line="139" data-uid="lnk23" id="link_Algorithm_CaesarCipher"><path codeLine="139" d="M722.4111,739.5743 C762.3311,757.8843 790.53,770.82 834.88,791.16" fill="none" id="Algorithm-backto-CaesarCipher" style="stroke:#181818;stroke-width:1;stroke-dasharray:7.0,7.0;"/><polygon fill="none" points="706.05,732.07,719.9097,745.028,724.9125,734.1206,706.05,732.07" style="stroke:#181818;stroke-width:1;"/></g><!--SRC=[xLVTJjim5BxFKtXSi8IIRhjbh19YG-9YcpIaQT8qHIPnKg-97TaE33Pu5vw1H-35TkmuYPEKjln8knatjF7tVSVdDwToGLc91IvGd6Cf3vGIzBHIv3Zcx8HU4lJQaoqa4xmgZzcS2AemYmbwunmc9CLLheuuKvzmGT3M4HKO7VA4R3ce4iSBd94JTP4J94WCEbbEFCy-HsUKd4k49Thw2f_GYH9Lh4A-s4A_FOIa-OeEQGbtC03z5A49Ih32Q0_5SonsxAESC7WYmOb8mQChXy-PL2j4zF5ggIlFC_6oLp4A8OhDbmZd6OS8pGlW73IVTnm4IU2aiwzFuCy0AcP59CdJY3B5VOL5HbIFiHtOI-wXCquJrxYc6B8lUIKWHtj3TuE6vMdN80VsrYo9m2EQiKZ7eQFNbch-Tk2O3D527ubgeRZWYrS9QRuWuyt4adpAVaAcIN9FP08N6_EI0hA-rCWw8AyRP53VWIeYiBPP47LtcrIIBnhpfoIZpEzYPVv73S5024jM0K2VbqJStHWFQzsN02il4CGBoNDS8ffGNcWnZTIyxpzyclm2ESY5emtrL8UymRtpnLmEN0pQF6-FiL4C0UuNg8ll4IQRC7g4jVZb1fOdQhMHDPn1c5ORQk9xoddUuxru0A_jvtu5sBw6qKMOMgxKx-ke78Plr2XDSVOj-RMDeVYkAU-nQl3sdkBitD_n1xNd7eOcD5gxq-tTnmaG64zecfh9robiMkIsJ7YQIZF4wY4QZ9gjNoVXngo-iOc_LZdqDv4fkLGfRVrREZiSoNNm9Kqmyct5bEgdRLFciYxQBENtzT83s3tw_bDipvv4VfBR-mzcmo0Xh2hGHzXxpFJum69nKUhUUK_gJm0vPa1FCRnUsxUW0K-G4fZ9b8l2jw_bXEejYNAzW6ZHNNXbELk4RhZ0xN1Sbl1EYnh8qkrX5wtT3HofYZs768L9p8iIAtgQa-WSNFQvkdzR2jnqn3bdnBIjiqvTTKkZbeXeKUPcSRIOefBe2y4vlRoxYUdThLqXwp7_xVCNPtFJ4xp06OsZ1Ra0AnNJQn345vgvFkvDyD6Ye-_OAlfZZS1WhZj8O5LRTkDXKqkEdnRnkC8Ol02Ueq06Y-Vp54fFrAe-k686RNpbjUa-n4HYCSXuEqOVbMMN_J-__oQ_a66Rqnt8dVE3oZwTJcV3gpH7OJZhj67vwwzzOTZy7XcTpDeTjHlTap0dgGfDcjpdKq6pkPhEtAijEnrSqO70wL1q_yzqsjNXyC2jTEyl]--></g></svg>