<svg xmlns="http://www.w3.org/2000/svg" xmlns:xlink="http://www.w3.org/1999/xlink" contentStyleType="text/css" data-diagram-type="CLASS" height="1122px" preserveAspectRatio="none" style="width:1465px;height:1122px;background:#FFFFFF;" version="1.1" viewBox="0 0 1465 1122" width="1465px" zoomAndPan="magnify"><defs/><g><!--cluster views--><g class="cluster" data-entity="views" data-source-line="6" data-uid="ent0002" id="cluster_views"><rect fill="none" height="134.47" rx="2.5" ry="2.5" style="stroke:#181818;stroke-width:1;" width="367" x="900" y="655"/><text fill="#000000" font-family="Fira Code" font-size="14" font-weight="bold" lengthAdjust="spacing" textLength="120.6156" x="1023.1922" y="669.9231">View Struct-ok</text></g><!--cluster algo_impl--><g class="cluster" data-entity="algo_impl" data-source-line="97" data-uid="ent0009" id="cluster_algo_impl"><rect fill="none" height="293.54" rx="2.5" ry="2.5" style="stroke:#181818;stroke-width:1;" width="1452" x="7" y="823.31"/><text fill="#000000" font-family="Fira Code" font-size="14" font-weight="bold" lengthAdjust="spacing" textLength="189.5388" x="638.2306" y="838.2331">Algoritmus Realiz&#225;ci&#243;k</text></g><!--class CipherView--><g class="entity" data-entity="CipherView" data-source-line="7" data-uid="ent0003" id="entity_CipherView"><rect fill="#F1F1F1" height="82.4616" rx="2.5" ry="2.5" style="stroke:#181818;stroke-width:0.5;" width="124.0002" x="916" y="691"/><ellipse cx="933.6308" cy="707" fill="#F1F1F1" rx="11" ry="11" style="stroke:#181818;stroke-width:1;"/><path d="M933.6933,713.4531 C936.4433,713.4531 937.9902,711.8594 937.9902,710.0156 C937.9902,708.4531 937.0839,707.5625 935.6152,707.0156 L934.2714,706.4375 C933.2089,706.0469 932.4589,705.7812 932.4589,705.125 C932.4589,704.4844 933.0214,704.125 933.8495,704.125 C934.9433,704.125 935.6308,704.4375 936.3964,705 L937.6777,703.4219 C936.6777,702.4687 935.3339,701.9687 933.9902,701.9687 C931.5839,701.9687 929.9277,703.4219 929.9277,705.2656 C929.9277,706.875 931.037,707.8281 932.287,708.2812 L933.7089,708.8906 C934.7714,709.3437 935.4277,709.5469 935.4277,710.3281 C935.4277,710.8906 934.9433,711.2969 933.8652,711.2969 C932.8027,711.2969 931.7558,710.8125 930.9277,710.1406 L929.4745,711.8594 C930.6777,712.9062 932.1933,713.4531 933.6933,713.4531 Z " fill="#000000"/><text fill="#000000" font-family="Fira Code" font-size="14" lengthAdjust="spacing" textLength="86.154" x="948.2154" y="711.3077">CipherView</text><line style="stroke:#181818;stroke-width:0.5;" x1="917" x2="1039.0002" y1="723" y2="723"/><text fill="#000000" font-family="Fira Code" font-size="14" lengthAdjust="spacing" textLength="112.0002" x="922" y="739.9231">+data : char*</text><text fill="#000000" font-family="Fira Code" font-size="14" lengthAdjust="spacing" textLength="112.0002" x="922" y="757.1539">+len : size_t</text><line style="stroke:#181818;stroke-width:0.5;" x1="917" x2="1039.0002" y1="765.4616" y2="765.4616"/></g><!--class ConstCipherView--><g class="entity" data-entity="ConstCipherView" data-source-line="11" data-uid="ent0004" id="entity_ConstCipherView"><rect fill="#F1F1F1" height="82.4616" rx="2.5" ry="2.5" style="stroke:#181818;stroke-width:0.5;" width="175.6926" x="1075.15" y="691"/><ellipse cx="1096.6577" cy="707" fill="#F1F1F1" rx="11" ry="11" style="stroke:#181818;stroke-width:1;"/><path d="M1096.7202,713.4531 C1099.4702,713.4531 1101.0171,711.8594 1101.0171,710.0156 C1101.0171,708.4531 1100.1108,707.5625 1098.6421,707.0156 L1097.2983,706.4375 C1096.2358,706.0469 1095.4858,705.7812 1095.4858,705.125 C1095.4858,704.4844 1096.0483,704.125 1096.8765,704.125 C1097.9702,704.125 1098.6577,704.4375 1099.4233,705 L1100.7046,703.4219 C1099.7046,702.4687 1098.3608,701.9687 1097.0171,701.9687 C1094.6108,701.9687 1092.9546,703.4219 1092.9546,705.2656 C1092.9546,706.875 1094.064,707.8281 1095.314,708.2812 L1096.7358,708.8906 C1097.7983,709.3437 1098.4546,709.5469 1098.4546,710.3281 C1098.4546,710.8906 1097.9702,711.2969 1096.8921,711.2969 C1095.8296,711.2969 1094.7827,710.8125 1093.9546,710.1406 L1092.5015,711.8594 C1093.7046,712.9062 1095.2202,713.4531 1096.7202,713.4531 Z " fill="#000000"/><text fill="#000000" font-family="Fira Code" font-size="14" lengthAdjust="spacing" textLength="129.231" x="1112.1039" y="711.3077">ConstCipherView</text><line style="stroke:#181818;stroke-width:0.5;" x1="1076.15" x2="1249.8426" y1="723" y2="723"/><text fill="#000000" font-family="Fira Code" font-size="14" lengthAdjust="spacing" textLength="163.6926" x="1081.15" y="739.9231">+data : const char*</text><text fill="#000000" font-family="Fira Code" font-size="14" lengthAdjust="spacing" textLength="112.0002" x="1081.15" y="757.1539">+len : size_t</text><line style="stroke:#181818;stroke-width:0.5;" x1="1076.15" x2="1249.8426" y1="765.4616" y2="765.4616"/></g><!--class XORCipher--><g class="entity" data-entity="XORCipher" data-source-line="98" data-uid="ent0010" id="entity_XORCipher"><rect fill="#F1F1F1" height="241.5388" rx="2.5" ry="2.5" style="stroke:#181818;stroke-width:0.5;" width="692.6175" x="22.69" y="859.31"/><ellipse cx="325.9794" cy="875.31" fill="#ADD1B2" rx="11" ry="11" style="stroke:#181818;stroke-width:1;"/><path d="M326.0263,881.5131 C327.5263,881.5131 328.7607,880.9506 329.6669,879.8881 L328.2919,878.3725 C327.7451,878.9663 327.0888,879.3569 326.2919,879.3569 C324.6201,879.3569 323.4638,878.0288 323.4638,875.7475 C323.4638,873.5288 324.6201,872.185 326.1826,872.185 C326.9951,872.185 327.5888,872.4975 328.1201,872.9819 L329.4951,871.435 C328.7451,870.7006 327.5888,870.0288 326.1826,870.0288 C323.2294,870.0288 320.9013,872.1694 320.9013,875.8413 C320.9013,879.56 323.2763,881.5131 326.0263,881.5131 Z " fill="#000000"/><text fill="#000000" font-family="Fira Code" font-size="14" lengthAdjust="spacing" textLength="77.5386" x="346.4794" y="879.6177">XORCipher</text><line style="stroke:#181818;stroke-width:0.5;" x1="23.69" x2="714.3075" y1="891.31" y2="891.31"/><text fill="#000000" font-family="Fira Code" font-size="14" lengthAdjust="spacing" textLength="215.3851" x="28.69" y="908.2331">-magic_key : unsigned int</text><text fill="#000000" font-family="Fira Code" font-size="14" lengthAdjust="spacing" textLength="258.4621" x="28.69" y="946.6947">+XORCipher(key : unsigned int)</text><text fill="#000000" font-family="Fira Code" font-size="14" lengthAdjust="spacing" textLength="103.3848" x="28.69" y="963.9255">~XORCipher()</text><line style="stroke:#181818;stroke-width:1;" x1="23.69" x2="274.2293" y1="925.1562" y2="925.1562"/><text fill="#000000" font-family="Fira Code" font-size="14" lengthAdjust="spacing" textLength="189.5388" x="274.2293" y="928.9639">konstruktor/destruktor</text><line style="stroke:#181818;stroke-width:1;" x1="463.7682" x2="714.3075" y1="925.1562" y2="925.1562"/><line style="stroke:#181818;stroke-width:1;" x1="23.69" x2="714.3075" y1="972.2332" y2="972.2332"/><text fill="#000000" font-family="Fira Code" font-size="14" lengthAdjust="spacing" textLength="232.6159" x="28.69" y="989.1563">+clone() const : Algorithm*</text><text fill="#000000" font-family="Fira Code" font-size="14" lengthAdjust="spacing" textLength="8.6154" x="28.69" y="1006.3871">&#160;</text><text fill="#000000" font-family="Fira Code" font-size="14" lengthAdjust="spacing" textLength="577.2325" x="28.69" y="1023.6179">+transform(cipher_direction : Mode, enciphered : char) const : char</text><text fill="#000000" font-family="Fira Code" font-size="14" lengthAdjust="spacing" textLength="663.3867" x="28.69" y="1040.8487">+append_ciphered(target : CipherView&amp;, source : ConstCipherView) const : void</text><text fill="#000000" font-family="Fira Code" font-size="14" lengthAdjust="spacing" textLength="680.6175" x="28.69" y="1058.0795">+append_unciphered(target : CipherView&amp;, source : ConstCipherView) const : void</text><text fill="#000000" font-family="Fira Code" font-size="14" lengthAdjust="spacing" textLength="8.6154" x="28.69" y="1075.3103">&#160;</text><text fill="#000000" font-family="Fira Code" font-size="14" lengthAdjust="spacing" textLength="534.1554" x="28.69" y="1092.5411">+is_compatible_with(other_algorithm : Algorithm*) const : bool</text></g><!--class CaesarCipher--><g class="entity" data-entity="CaesarCipher" data-source-line="113" data-uid="ent0011" id="entity_CaesarCipher"><rect fill="#F1F1F1" height="241.5388" rx="2.5" ry="2.5" style="stroke:#181818;stroke-width:0.5;" width="692.6175" x="750.69" y="859.31"/><ellipse cx="1041.0563" cy="875.31" fill="#ADD1B2" rx="11" ry="11" style="stroke:#181818;stroke-width:1;"/><path d="M1041.1032,881.5131 C1042.6032,881.5131 1043.8376,880.9506 1044.7438,879.8881 L1043.3688,878.3725 C1042.822,878.9663 1042.1657,879.3569 1041.3688,879.3569 C1039.697,879.3569 1038.5407,878.0288 1038.5407,875.7475 C1038.5407,873.5288 1039.697,872.185 1041.2595,872.185 C1042.072,872.185 1042.6657,872.4975 1043.197,872.9819 L1044.572,871.435 C1043.822,870.7006 1042.6657,870.0288 1041.2595,870.0288 C1038.3063,870.0288 1035.9782,872.1694 1035.9782,875.8413 C1035.9782,879.56 1038.3532,881.5131 1041.1032,881.5131 Z " fill="#000000"/><text fill="#000000" font-family="Fira Code" font-size="14" lengthAdjust="spacing" textLength="103.3848" x="1061.5563" y="879.6177">CaesarCipher</text><line style="stroke:#181818;stroke-width:0.5;" x1="751.69" x2="1442.3075" y1="891.31" y2="891.31"/><text fill="#000000" font-family="Fira Code" font-size="14" lengthAdjust="spacing" textLength="112.0002" x="756.69" y="908.2331">-offset : int</text><text fill="#000000" font-family="Fira Code" font-size="14" lengthAdjust="spacing" textLength="206.7697" x="756.69" y="946.6947">+XORCipher(offset : int)</text><text fill="#000000" font-family="Fira Code" font-size="14" lengthAdjust="spacing" textLength="103.3848" x="756.69" y="963.9255">~XORCipher()</text><line style="stroke:#181818;stroke-width:1;" x1="751.69" x2="1002.2293" y1="925.1562" y2="925.1562"/><text fill="#000000" font-family="Fira Code" font-size="14" lengthAdjust="spacing" textLength="189.5388" x="1002.2293" y="928.9639">konstruktor/destruktor</text><line style="stroke:#181818;stroke-width:1;" x1="1191.7682" x2="1442.3075" y1="925.1562" y2="925.1562"/><line style="stroke:#181818;stroke-width:1;" x1="751.69" x2="1442.3075" y1="972.2332" y2="972.2332"/><text fill="#000000" font-family="Fira Code" font-size="14" lengthAdjust="spacing" textLength="232.6159" x="756.69" y="989.1563">+clone() const : Algorithm*</text><text fill="#000000" font-family="Fira Code" font-size="14" lengthAdjust="spacing" textLength="8.6154" x="756.69" y="1006.3871">&#160;</text><text fill="#000000" font-family="Fira Code" font-size="14" lengthAdjust="spacing" textLength="577.2325" x="756.69" y="1023.6179">+transform(cipher_direction : Mode, enciphered : char) const : char</text><text fill="#000000" font-family="Fira Code" font-size="14" lengthAdjust="spacing" textLength="663.3867" x="756.69" y="1040.8487">+append_ciphered(target : CipherView&amp;, source : ConstCipherView) const : void</text><text fill="#000000" font-family="Fira Code" font-size="14" lengthAdjust="spacing" textLength="680.6175" x="756.69" y="1058.0795">+append_unciphered(target : CipherView&amp;, source : ConstCipherView) const : void</text><text fill="#000000" font-family="Fira Code" font-size="14" lengthAdjust="spacing" textLength="8.6154" x="756.69" y="1075.3103">&#160;</text><text fill="#000000" font-family="Fira Code" font-size="14" lengthAdjust="spacing" textLength="534.1554" x="756.69" y="1092.5411">+is_compatible_with(other_algorithm : Algorithm*) const : bool</text></g><!--class Cipher--><g class="entity" data-entity="Cipher" data-source-line="17" data-uid="ent0005" id="entity_Cipher"><rect fill="#F1F1F1" height="598.1547" rx="2.5" ry="2.5" style="stroke:#181818;stroke-width:0.5;" width="494.4629" x="730.77" y="7"/><ellipse cx="947.9052" cy="23" fill="#ADD1B2" rx="11" ry="11" style="stroke:#181818;stroke-width:1;"/><path d="M947.9521,29.2031 C949.4521,29.2031 950.6865,28.6406 951.5927,27.5781 L950.2177,26.0625 C949.6709,26.6563 949.0146,27.0469 948.2177,27.0469 C946.5459,27.0469 945.3896,25.7188 945.3896,23.4375 C945.3896,21.2188 946.5459,19.875 948.1084,19.875 C948.9209,19.875 949.5146,20.1875 950.0459,20.6719 L951.4209,19.125 C950.6709,18.3906 949.5146,17.7188 948.1084,17.7188 C945.1552,17.7188 942.8271,19.8594 942.8271,23.5313 C942.8271,27.25 945.2021,29.2031 947.9521,29.2031 Z " fill="#000000"/><text fill="#000000" font-family="Fira Code" font-size="14" lengthAdjust="spacing" textLength="51.6924" x="968.4052" y="27.3077">Cipher</text><line style="stroke:#181818;stroke-width:0.5;" x1="731.77" x2="1224.2329" y1="39" y2="39"/><text fill="#000000" font-family="Fira Code" font-size="14" lengthAdjust="spacing" textLength="258.4621" x="736.77" y="55.9231">-cipher_algorithm : Algorithm*</text><text fill="#000000" font-family="Fira Code" font-size="14" lengthAdjust="spacing" textLength="189.5388" x="736.77" y="73.1539">-ciphered : CipherView</text><text fill="#000000" font-family="Fira Code" font-size="14" lengthAdjust="spacing" textLength="180.9234" x="736.77" y="90.3847">+len() const : size_t</text><line style="stroke:#181818;stroke-width:1;" x1="731.77" x2="1224.2329" y1="98.6924" y2="98.6924"/><text fill="#000000" font-family="Fira Code" font-size="14" lengthAdjust="spacing" textLength="465.2321" x="736.77" y="115.6155">-uncipher_self_into(target : CipherView&amp;) const : void</text><text fill="#000000" font-family="Fira Code" font-size="14" lengthAdjust="spacing" textLength="430.7704" x="736.77" y="132.8463">-cipher_into_self(source : ConstCipherView) : void</text><text fill="#000000" font-family="Fira Code" font-size="14" lengthAdjust="spacing" textLength="8.6154" x="736.77" y="150.0771">&#160;</text><text fill="#000000" font-family="Fira Code" font-size="14" lengthAdjust="spacing" textLength="482.4629" x="736.77" y="167.3079">+recipher_and_assign_data(source : const Cipher&amp;) : void</text><text fill="#000000" font-family="Fira Code" font-size="14" lengthAdjust="spacing" textLength="301.5391" x="736.77" y="205.7695">-plaintext_buffer : char* &#171;mutable&#187;</text><text fill="#000000" font-family="Fira Code" font-size="14" lengthAdjust="spacing" textLength="189.5388" x="736.77" y="223.0003">+c_str() const : char*</text><line style="stroke:#181818;stroke-width:1;" x1="731.77" x2="878.9243" y1="184.231" y2="184.231"/><text fill="#000000" font-family="Fira Code" font-size="14" lengthAdjust="spacing" textLength="198.1543" x="878.9243" y="188.0387">C String kompatibilit&#225;s</text><line style="stroke:#181818;stroke-width:1;" x1="1077.0786" x2="1224.2329" y1="184.231" y2="184.231"/><text fill="#000000" font-family="Fira Code" font-size="14" lengthAdjust="spacing" textLength="430.7704" x="736.77" y="261.4619">+Cipher(injected_algorithm : Algorithm* = nullptr)</text><text fill="#000000" font-family="Fira Code" font-size="14" lengthAdjust="spacing" textLength="327.3854" x="736.77" y="278.6927">+Cipher(copied_cipher : const Cipher&amp;)</text><text fill="#000000" font-family="Fira Code" font-size="14" lengthAdjust="spacing" textLength="77.5386" x="736.77" y="295.9235">~Cipher()</text><line style="stroke:#181818;stroke-width:1;" x1="731.77" x2="874.6166" y1="239.9234" y2="239.9234"/><text fill="#000000" font-family="Fira Code" font-size="14" lengthAdjust="spacing" textLength="206.7697" x="874.6166" y="243.7311">konstruktorok/destruktor</text><line style="stroke:#181818;stroke-width:1;" x1="1081.3863" x2="1224.2329" y1="239.9234" y2="239.9234"/><text fill="#000000" font-family="Fira Code" font-size="14" lengthAdjust="spacing" textLength="267.0775" x="736.77" y="334.385">+begin() const : const_iterator</text><text fill="#000000" font-family="Fira Code" font-size="14" lengthAdjust="spacing" textLength="249.8467" x="736.77" y="351.6158">+end() const : const_iterator</text><line style="stroke:#181818;stroke-width:1;" x1="731.77" x2="900.4628" y1="312.8466" y2="312.8466"/><text fill="#000000" font-family="Fira Code" font-size="14" lengthAdjust="spacing" textLength="155.0772" x="900.4628" y="316.6543">iterator met&#243;dusok</text><line style="stroke:#181818;stroke-width:1;" x1="1055.5401" x2="1224.2329" y1="312.8466" y2="312.8466"/><text fill="#000000" font-family="Fira Code" font-size="14" lengthAdjust="spacing" textLength="301.5391" x="736.77" y="390.0774">+operator[](idx : int) const : char</text><text fill="#000000" font-family="Fira Code" font-size="14" lengthAdjust="spacing" textLength="8.6154" x="736.77" y="407.3082">&#160;</text><text fill="#000000" font-family="Fira Code" font-size="14" lengthAdjust="spacing" textLength="344.6162" x="736.77" y="424.539">+operator=(rhs : const Cipher) : Cipher&amp;</text><text fill="#000000" font-family="Fira Code" font-size="14" lengthAdjust="spacing" textLength="379.0779" x="736.77" y="441.7698">+operator=(rhs_cstr : const char*) : Cipher&amp;</text><text fill="#000000" font-family="Fira Code" font-size="14" lengthAdjust="spacing" textLength="8.6154" x="736.77" y="459.0006">&#160;</text><text fill="#000000" font-family="Fira Code" font-size="14" lengthAdjust="spacing" textLength="387.6933" x="736.77" y="476.2314">+operator+=(rhs_cstr : const char*) : Cipher&amp;</text><text fill="#000000" font-family="Fira Code" font-size="14" lengthAdjust="spacing" textLength="370.4625" x="736.77" y="493.4622">+operator+(rhs_cstr : const char*) : Cipher</text><text fill="#000000" font-family="Fira Code" font-size="14" lengthAdjust="spacing" textLength="8.6154" x="736.77" y="510.693">&#160;</text><text fill="#000000" font-family="Fira Code" font-size="14" lengthAdjust="spacing" textLength="422.155" x="736.77" y="527.9238">+operator+=(rhs_cipher : const Cipher&amp;) : Cipher&amp;</text><text fill="#000000" font-family="Fira Code" font-size="14" lengthAdjust="spacing" textLength="404.9241" x="736.77" y="545.1546">+operator+(rhs_cipher : const Cipher&amp;) : Cipher</text><text fill="#000000" font-family="Fira Code" font-size="14" lengthAdjust="spacing" textLength="8.6154" x="736.77" y="562.3854">&#160;</text><text fill="#000000" font-family="Fira Code" font-size="14" lengthAdjust="spacing" textLength="448.0012" x="736.77" y="579.6162">+operator==(rhs_cipher : const Cipher&amp;) const : bool</text><text fill="#000000" font-family="Fira Code" font-size="14" lengthAdjust="spacing" textLength="448.0012" x="736.77" y="596.847">+operator!=(rhs_cipher : const Cipher&amp;) const : bool</text><line style="stroke:#181818;stroke-width:1;" x1="731.77" x2="934.9244" y1="368.5389" y2="368.5389"/><text fill="#000000" font-family="Fira Code" font-size="14" lengthAdjust="spacing" textLength="86.154" x="934.9244" y="372.3466">oper&#225;torok</text><line style="stroke:#181818;stroke-width:1;" x1="1021.0785" x2="1224.2329" y1="368.5389" y2="368.5389"/></g><!--class const_iterator--><g class="entity" data-entity="const_iterator" data-source-line="53" data-uid="ent0006" id="entity_const_iterator"><rect fill="#F1F1F1" height="530.4623" rx="2.5" ry="2.5" style="stroke:#181818;stroke-width:0.5;" width="563.3862" x="132.31" y="40.85"/><ellipse cx="349.4453" cy="56.85" fill="#ADD1B2" rx="11" ry="11" style="stroke:#181818;stroke-width:1;"/><path d="M349.4922,63.0531 C350.9922,63.0531 352.2265,62.4906 353.1328,61.4281 L351.7578,59.9125 C351.2109,60.5062 350.5547,60.8969 349.7578,60.8969 C348.0859,60.8969 346.9297,59.5687 346.9297,57.2875 C346.9297,55.0687 348.0859,53.725 349.6484,53.725 C350.4609,53.725 351.0547,54.0375 351.5859,54.5219 L352.9609,52.975 C352.2109,52.2406 351.0547,51.5687 349.6484,51.5687 C346.6953,51.5687 344.3672,53.7094 344.3672,57.3812 C344.3672,61.1 346.7422,63.0531 349.4922,63.0531 Z " fill="#000000"/><text fill="#000000" font-family="Fira Code" font-size="14" lengthAdjust="spacing" textLength="120.6156" x="369.9453" y="61.1577">const_iterator</text><line style="stroke:#181818;stroke-width:0.5;" x1="133.31" x2="694.6962" y1="72.85" y2="72.85"/><text fill="#000000" font-family="Fira Code" font-size="14" lengthAdjust="spacing" textLength="258.4621" x="138.31" y="89.7731">-parent_cipher : const Cipher*</text><text fill="#000000" font-family="Fira Code" font-size="14" lengthAdjust="spacing" textLength="232.6159" x="138.31" y="107.0039">-ciphered_ptr : const char*</text><text fill="#000000" font-family="Fira Code" font-size="14" lengthAdjust="spacing" textLength="551.3862" x="138.31" y="145.4655">+const_iterator(parent : const Cipher*, iter_ptr : const char*);</text><line style="stroke:#181818;stroke-width:1;" x1="133.31" x2="366.6184" y1="123.927" y2="123.927"/><text fill="#000000" font-family="Fira Code" font-size="14" lengthAdjust="spacing" textLength="94.7694" x="366.6184" y="127.7347">konstruktor</text><line style="stroke:#181818;stroke-width:1;" x1="461.3878" x2="694.6962" y1="123.927" y2="123.927"/><text fill="#000000" font-family="Fira Code" font-size="14" lengthAdjust="spacing" textLength="215.3851" x="138.31" y="183.9271">+operator*() const : char</text><text fill="#000000" font-family="Fira Code" font-size="14" lengthAdjust="spacing" textLength="534.1554" x="138.31" y="201.1579">+operator-(rhs_iter : const const_iterator&amp;) const : ptrdiff_t</text><text fill="#000000" font-family="Fira Code" font-size="14" lengthAdjust="spacing" textLength="301.5391" x="138.31" y="218.3887">+operator[](idx : int) const : char</text><text fill="#000000" font-family="Fira Code" font-size="14" lengthAdjust="spacing" textLength="8.6154" x="138.31" y="235.6195">&#160;</text><text fill="#000000" font-family="Fira Code" font-size="14" lengthAdjust="spacing" textLength="430.7704" x="138.31" y="252.8503">+operator+=(rhs_offset : size_t) : const_iterator&amp;</text><text fill="#000000" font-family="Fira Code" font-size="14" lengthAdjust="spacing" textLength="430.7704" x="138.31" y="270.0811">+operator-=(rhs_offset : size_t) : const_iterator&amp;</text><text fill="#000000" font-family="Fira Code" font-size="14" lengthAdjust="spacing" textLength="8.6154" x="138.31" y="287.3119">&#160;</text><text fill="#000000" font-family="Fira Code" font-size="14" lengthAdjust="spacing" textLength="267.0775" x="138.31" y="304.5427">+operator++() : const_iterator&amp;</text><text fill="#000000" font-family="Fira Code" font-size="14" lengthAdjust="spacing" textLength="267.0775" x="138.31" y="321.7735">+operator--() : const_iterator&amp;</text><text fill="#000000" font-family="Fira Code" font-size="14" lengthAdjust="spacing" textLength="8.6154" x="138.31" y="339.0043">&#160;</text><text fill="#000000" font-family="Fira Code" font-size="14" lengthAdjust="spacing" textLength="370.4625" x="138.31" y="356.235">+operator++(postfix : int) : const_iterator</text><text fill="#000000" font-family="Fira Code" font-size="14" lengthAdjust="spacing" textLength="370.4625" x="138.31" y="373.4658">+operator--(postfix : int) : const_iterator</text><text fill="#000000" font-family="Fira Code" font-size="14" lengthAdjust="spacing" textLength="8.6154" x="138.31" y="390.6966">&#160;</text><text fill="#000000" font-family="Fira Code" font-size="14" lengthAdjust="spacing" textLength="465.2321" x="138.31" y="407.9274">+operator+(rhs_offset : size_t) const : const_iterator</text><text fill="#000000" font-family="Fira Code" font-size="14" lengthAdjust="spacing" textLength="465.2321" x="138.31" y="425.1582">+operator-(rhs_offset : size_t) const : const_iterator</text><text fill="#000000" font-family="Fira Code" font-size="14" lengthAdjust="spacing" textLength="8.6154" x="138.31" y="442.389">&#160;</text><text fill="#000000" font-family="Fira Code" font-size="14" lengthAdjust="spacing" textLength="499.6937" x="138.31" y="459.6198">+operator==(rhs_iter : const const_iterator&amp;) const : bool</text><text fill="#000000" font-family="Fira Code" font-size="14" lengthAdjust="spacing" textLength="499.6937" x="138.31" y="476.8506">+operator!=(rhs_iter : const const_iterator&amp;) const : bool</text><text fill="#000000" font-family="Fira Code" font-size="14" lengthAdjust="spacing" textLength="8.6154" x="138.31" y="494.0814">&#160;</text><text fill="#000000" font-family="Fira Code" font-size="14" lengthAdjust="spacing" textLength="491.0783" x="138.31" y="511.3122">+operator&lt;(rhs_iter : const const_iterator&amp;) const : bool</text><text fill="#000000" font-family="Fira Code" font-size="14" lengthAdjust="spacing" textLength="491.0783" x="138.31" y="528.543">+operator&gt;(rhs_iter : const const_iterator&amp;) const : bool</text><text fill="#000000" font-family="Fira Code" font-size="14" lengthAdjust="spacing" textLength="499.6937" x="138.31" y="545.7738">+operator&gt;=(rhs_iter : const const_iterator&amp;) const : bool</text><text fill="#000000" font-family="Fira Code" font-size="14" lengthAdjust="spacing" textLength="499.6937" x="138.31" y="563.0046">+operator&lt;=(rhs_iter : const const_iterator&amp;) const : bool</text><line style="stroke:#181818;stroke-width:1;" x1="133.31" x2="370.9261" y1="162.3886" y2="162.3886"/><text fill="#000000" font-family="Fira Code" font-size="14" lengthAdjust="spacing" textLength="86.154" x="370.9261" y="166.1963">oper&#225;torok</text><line style="stroke:#181818;stroke-width:1;" x1="457.0801" x2="694.6962" y1="162.3886" y2="162.3886"/></g><!--class Mode--><g class="entity" data-entity="Mode" data-source-line="84" data-uid="ent0007" id="entity_Mode"><rect fill="#F1F1F1" height="82.4616" rx="2.5" ry="2.5" style="stroke:#181818;stroke-width:0.5;" width="72.3078" x="132.85" y="691"/><ellipse cx="150.4808" cy="707" fill="#EB937F" rx="11" ry="11" style="stroke:#181818;stroke-width:1;"/><path d="M146.5433,713 L154.0589,713 L154.0589,710.8906 L149.0589,710.8906 L149.0589,708.3437 L153.1527,708.3437 L153.1527,706.25 L149.0589,706.25 L149.0589,704.0312 L153.887,704.0312 L153.887,701.9219 L146.5433,701.9219 L146.5433,713 Z " fill="#000000"/><text fill="#000000" font-family="Fira Code" font-size="14" lengthAdjust="spacing" textLength="34.4616" x="165.0654" y="711.3077">Mode</text><line style="stroke:#181818;stroke-width:0.5;" x1="133.85" x2="204.1578" y1="723" y2="723"/><text fill="#000000" font-family="Fira Code" font-size="14" lengthAdjust="spacing" textLength="60.3078" x="138.85" y="739.9231">Encrypt</text><text fill="#000000" font-family="Fira Code" font-size="14" lengthAdjust="spacing" textLength="60.3078" x="138.85" y="757.1539">Decrypt</text><line style="stroke:#181818;stroke-width:0.5;" x1="133.85" x2="204.1578" y1="765.4616" y2="765.4616"/></g><!--class Algorithm--><g class="entity" data-entity="Algorithm" data-source-line="89" data-uid="ent0008" id="entity_Algorithm"><rect fill="#F1F1F1" height="134.154" rx="2.5" ry="2.5" style="stroke:#181818;stroke-width:0.5;" width="640.925" x="240.54" y="665.16"/><ellipse cx="517.9832" cy="681.16" fill="#B4A7E5" rx="11" ry="11" style="stroke:#181818;stroke-width:1;"/><path d="M514.2488,687.16 L521.9207,687.16 L521.9207,685.0506 L519.3426,685.0506 L519.3426,678.1912 L521.9207,678.1912 L521.9207,676.0819 L514.2488,676.0819 L514.2488,678.1912 L516.8269,678.1912 L516.8269,685.0506 L514.2488,685.0506 L514.2488,687.16 Z " fill="#000000"/><text fill="#000000" font-family="Fira Code" font-size="14" font-style="italic" lengthAdjust="spacing" textLength="77.5386" x="538.4832" y="685.4677">Algorithm</text><line style="stroke:#181818;stroke-width:0.5;" x1="241.54" x2="880.465" y1="697.16" y2="697.16"/><line style="stroke:#181818;stroke-width:0.5;" x1="241.54" x2="880.465" y1="705.16" y2="705.16"/><text fill="#000000" font-family="Fira Code" font-size="14" lengthAdjust="spacing" textLength="525.54" x="246.54" y="722.0831">+transform(cipher_direction : Mode, enciphered : char) : char</text><text fill="#000000" font-family="Fira Code" font-size="14" lengthAdjust="spacing" textLength="611.6942" x="246.54" y="739.3139">+append_ciphered(target : CipherView&amp;, source : ConstCipherView) : void</text><text fill="#000000" font-family="Fira Code" font-size="14" lengthAdjust="spacing" textLength="628.925" x="246.54" y="756.5447">+append_unciphered(target : CipherView&amp;, source : ConstCipherView) : void</text><text fill="#000000" font-family="Fira Code" font-size="14" lengthAdjust="spacing" textLength="482.4629" x="246.54" y="773.7755">+is_compatible_with(other_algorithm : Algorithm*) : bool</text><text fill="#000000" font-family="Fira Code" font-size="14" lengthAdjust="spacing" textLength="180.9234" x="246.54" y="791.0063">+clone() : Algorithm*</text></g><!--reverse link Cipher to CipherView--><g class="link" data-entity-1="Cipher" data-entity-2="CipherView" data-source-line="129" data-uid="lnk12" id="link_Cipher_CipherView"><path codeLine="129" d="M978,617.41 C978,650.64 978,668.46 978,690.73" fill="none" id="Cipher-backto-CipherView" style="stroke:#181818;stroke-width:1;"/><polygon fill="#181818" points="978,605.41,974,611.41,978,617.41,982,611.41,978,605.41" style="stroke:#181818;stroke-width:1;"/></g><!--link Cipher to ConstCipherView--><g class="link" data-entity-1="Cipher" data-entity-2="ConstCipherView" data-source-line="130" data-uid="lnk13" id="link_Cipher_ConstCipherView"><path codeLine="130" d="M1108.12,605.41 C1122.61,638.64 1133.222,662.9601 1142.932,685.2301" fill="none" id="Cipher-to-ConstCipherView" style="stroke:#181818;stroke-width:1;stroke-dasharray:7.0,7.0;"/><polygon fill="#181818" points="1145.33,690.73,1145.3996,680.8814,1143.3316,686.1467,1138.0663,684.0788,1145.33,690.73" style="stroke:#181818;stroke-width:1;"/></g><!--link Cipher to Algorithm--><g class="link" data-entity-1="Cipher" data-entity-2="Algorithm" data-source-line="131" data-uid="lnk14" id="link_Cipher_Algorithm"><path codeLine="131" d="M730.6,587.89 C724.72,593.74 718.85,599.5 713,605.16 C692.04,625.41 672.8683,642.2796 650.4183,660.8996" fill="none" id="Cipher-to-Algorithm" style="stroke:#181818;stroke-width:1;"/><polygon fill="#181818" points="645.8,664.73,655.281,662.0633,649.6485,661.538,650.1738,655.9056,645.8,664.73" style="stroke:#181818;stroke-width:1;"/></g><!--link const_iterator to Cipher--><g class="link" data-entity-1="const_iterator" data-entity-2="Cipher" data-source-line="133" data-uid="lnk15" id="link_const_iterator_Cipher"><path codeLine="133" d="M696,505 C707.47,505 703.1832,506.7417 714.6532,504.7617" fill="none" id="const_iterator-to-Cipher" style="stroke:#181818;stroke-width:1;"/><ellipse cx="722.5366" cy="503.4009" fill="#FFFFFF" rx="8" ry="8" style="stroke:#181818;stroke-width:1;"/><line style="stroke:#181818;stroke-width:1;" x1="714.6532" x2="730.42" y1="504.7617" y2="502.04"/><line style="stroke:#181818;stroke-width:1;" x1="721.1757" x2="723.8975" y1="495.5175" y2="511.2843"/></g><!--link const_iterator to Cipher--><g class="link" data-entity-1="const_iterator" data-entity-2="Cipher" data-source-line="134" data-uid="lnk16" id="link_const_iterator_Cipher"><path codeLine="134" d="M696,107.16 C707.47,107.16 713.0374,107.1194 724.5074,109.0994" fill="none" id="const_iterator-to-Cipher-1" style="stroke:#181818;stroke-width:1;"/><polygon fill="#181818" points="730.42,110.12,722.2316,104.6473,725.4929,109.2695,720.8707,112.5307,730.42,110.12" style="stroke:#181818;stroke-width:1;"/></g><!--link Mode to Algorithm--><g class="link" data-entity-1="Mode" data-entity-2="Algorithm" data-source-line="136" data-uid="lnk18" id="link_Mode_Algorithm"><path codeLine="136" d="M205.37,742.64 C216.94,745.62 212.8344,745.1139 224.4144,747.4439" fill="none" id="Mode-to-Algorithm" style="stroke:#181818;stroke-width:1;"/><ellipse cx="232.2572" cy="749.022" fill="#FFFFFF" rx="8" ry="8" style="stroke:#181818;stroke-width:1;"/><line style="stroke:#181818;stroke-width:1;" x1="224.4144" x2="240.1" y1="747.4439" y2="750.6"/><line style="stroke:#181818;stroke-width:1;" x1="233.8352" x2="230.6791" y1="741.1791" y2="756.8648"/></g><!--link Algorithm to Mode--><g class="link" data-entity-1="Algorithm" data-entity-2="Mode" data-source-line="140" data-uid="lnk21" id="link_Algorithm_Mode"><path codeLine="140" d="M240.1,713.87 C228.52,716.2 222.7516,717.3582 211.1816,720.3282" fill="none" id="Algorithm-to-Mode" style="stroke:#181818;stroke-width:1;stroke-dasharray:7.0,7.0;"/><polygon fill="#181818" points="205.37,721.82,215.0819,723.4567,210.213,720.5768,213.0928,715.7079,205.37,721.82" style="stroke:#181818;stroke-width:1;"/></g><!--link Algorithm to CipherView--><g class="link" data-entity-1="Algorithm" data-entity-2="CipherView" data-source-line="138" data-uid="lnk19" id="link_Algorithm_CipherView"><path codeLine="138" d="M881.89,732.23 C893.16,732.23 898.42,732.23 909.68,732.23" fill="none" id="Algorithm-to-CipherView" style="stroke:#181818;stroke-width:1;stroke-dasharray:7.0,7.0;"/><polygon fill="#181818" points="915.68,732.23,906.68,728.23,910.68,732.23,906.68,736.23,915.68,732.23" style="stroke:#181818;stroke-width:1;"/></g><!--link Algorithm to ConstCipherView--><g class="link" data-entity-1="Algorithm" data-entity-2="ConstCipherView" data-source-line="139" data-uid="lnk20" id="link_Algorithm_ConstCipherView"><path codeLine="139" d="M689.21,664.75 C787.41,622.33 925.16,583.06 1040.5,626.08 C1075.17,639.01 1102.4503,662.2891 1124.7603,686.1291" fill="none" id="Algorithm-to-ConstCipherView" style="stroke:#181818;stroke-width:1;stroke-dasharray:7.0,7.0;"/><polygon fill="#181818" points="1128.86,690.51,1125.631,681.2055,1125.4436,686.8593,1119.7898,686.6718,1128.86,690.51" style="stroke:#181818;stroke-width:1;"/></g><!--reverse link Algorithm to XORCipher--><g class="link" data-entity-1="Algorithm" data-entity-2="XORCipher" data-source-line="142" data-uid="lnk22" id="link_Algorithm_XORCipher"><path codeLine="142" d="M497.9661,813.9504 C483.6461,832.3004 478.72,838.59 462.8,858.97" fill="none" id="Algorithm-backto-XORCipher" style="stroke:#181818;stroke-width:1;stroke-dasharray:7.0,7.0;"/><polygon fill="none" points="509.04,799.76,493.2359,810.2591,502.6962,817.6417,509.04,799.76" style="stroke:#181818;stroke-width:1;"/></g><!--reverse link Algorithm to CaesarCipher--><g class="link" data-entity-1="Algorithm" data-entity-2="CaesarCipher" data-source-line="143" data-uid="lnk23" id="link_Algorithm_CaesarCipher"><path codeLine="143" d="M722.4111,807.2643 C762.3311,825.5743 790.53,838.51 834.88,858.85" fill="none" id="Algorithm-backto-CaesarCipher" style="stroke:#181818;stroke-width:1;stroke-dasharray:7.0,7.0;"/><polygon fill="none" points="706.05,799.76,719.9097,812.718,724.9125,801.8106,706.05,799.76" style="stroke:#181818;stroke-width:1;"/></g><!--SRC=[xLVTRjis5BxNKt2voAGuyhRRpZLGP2kGYsr00mm3Xa6W9KhcH942IJLDr_HTyWnz1B_O3YbAeYJ7Tfe0krbkOf7d-yx_qP4gAQ-nn1LA6LRgZTQIRXfDhbF1R-X7WhuFL2zIID7KrtnB9DMOfmJzu5rc9CSDqsy5rx_YYg2pjrHYT2KoSkP9rJWjSK5kz1qZI98KU0f6Wi2Te_UKt2g45Jhx7NwX6osRLCUYF4F_10Wf-uYkQ0qsM05pYj02PLXZz0gbMomlt14Z74uKE95eEBhty88hVO34N1-ckWy26ozdYcM8KMeV4imA0H7QLe1vq_s-y2H81ZU3_i2f22EdsbCLmvz5DjonAyBoX78jGerbGVI8wdoWU2zevbjb81OSAj58IDwhQHoY3cKDWkGuTtYMWAkqu8a9q01lDRNuyyXJ6QChapdA2rIAgiQQRYYZUlUWaFEcPXZi8Hzqicdo70BeKeTMgwhHUCF8UcsjI1F8cHUOBYkWepH7iYcraAByBYFTGwjZuGmBAVyRoenaZwG5lKQyOQpMCl9HgQWfODeGp7m5oS-TPDHQGpMHs6YlYDvzoHeboiwG3IcedrpxF-a0LeJmx900y8kQoDs3zRNb_HR4wZi4sK7g5jU8PbHKXin86joVVuKq-m1q4Ebn0Di4TtAlGxbL4nUZlghEvx992g4UzualFm8iJa6C04VbzolOdwZ3IevW9c4whAYBxqO8Di9zymHSFrR65U362qnGmlL-fl5uIUff-6OjqnNdM5FOwfYINzhodhD6FpvId8Fx5vFc7Lt6DZI6U-0TsUC529HdDC_jL1mOJYroLoOYpnKP1cmqQxPndSGdeyRA5k5HvZWyXQOMIkUqzs_lxF0eZudlQOAPRmUcr3XjfoBtTT5fAN-ibvw07i5Npz6zVXRuMMwldeo6GK9uKw5VOFsoq-DddigxslJEJwJz1IBNy0gMEOQNUVy-jC8Bf2NcAXUo2jqIa56ph55XzY13UWclB6-PCGqN-HsEwnhUQKadidTNkKH7Dn6Fgk4lGKPX4hkLX97a5bmEXNvyQOlyTAHCS6BRrjlgxeVTrL0ajAgPtL-TJDKez8vWHZ_k7bAw- -8ssNRC__7REs-1D1EymWLDavBSWPQ6cwKBuWlDt5wF9lXivJ4szepXd2EoCfy7aSYnzkZEmwwMF3-TnDSLnkG5y185CbbpNwPGHgIEzSaLCsdZ-w1FznKc2ij9nlin-bLPzj7_v_U_oIzasENqmdpw3DzrxdIvN4zDwQxYU3rmm_8tNllYkFiUcTsi-nrr6DsBc95SnpPD_lbIqcAhbslVj7st4nCz4RYTagu-BPT37Kul_4eF_WK0]--></g></svg>